<svg width="120" height="40" viewBox="0 0 120 40" fill="none" xmlns="http://www.w3.org/2000/svg">
<path d="M110.135 0.00013H9.53468C9.16798 0.00013 8.80568 0.00013 8.43995 0.00212999C8.1338 0.00412999 7.83009 0.00993997 7.521 0.01483C6.84951 0.0227317 6.17961 0.081806 5.5171 0.191539C4.85552 0.303662 4.21467 0.515044 3.61622 0.818537C3.0185 1.1246 2.47234 1.52229 1.99757 1.99719C1.5203 2.47076 1.12246 3.01814 0.81935 3.61828C0.5154 4.21723 0.30464 4.85905 0.19435 5.52159C0.0830109 6.1833 0.0230984 6.85263 0.01515 7.52359C0.00587 7.83018 0.00489 8.1378 0 8.44444V31.5586C0.00489 31.8691 0.00587 32.1699 0.01515 32.4805C0.0231008 33.1514 0.0830134 33.8207 0.19435 34.4824C0.304336 35.1453 0.515108 35.7875 0.81935 36.3867C1.12233 36.9849 1.52022 37.5301 1.99757 38.001C2.47054 38.478 3.01705 38.876 3.61622 39.1797C4.21467 39.484 4.85545 39.6967 5.5171 39.8105C6.17972 39.9194 6.84956 39.9785 7.521 39.9873C7.83009 39.9941 8.1338 39.998 8.43995 39.998C8.80567 40 9.168 40 9.53468 40H110.135C110.494 40 110.859 40 111.219 39.998C111.523 39.998 111.836 39.9941 112.141 39.9873C112.811 39.9789 113.479 39.9198 114.141 39.8105C114.804 39.6959 115.448 39.4833 116.049 39.1797C116.647 38.8758 117.193 38.4779 117.666 38.001C118.142 37.5282 118.541 36.9835 118.848 36.3867C119.15 35.7871 119.358 35.145 119.467 34.4824C119.578 33.8207 119.64 33.1515 119.652 32.4805C119.656 32.1699 119.656 31.8691 119.656 31.5586C119.664 31.1953 119.664 30.834 119.664 30.4648V9.53623C119.664 9.17002 119.664 8.80674 119.656 8.44444C119.656 8.1378 119.656 7.83018 119.652 7.52355C119.64 6.85253 119.578 6.18335 119.467 5.52155C119.358 4.8594 119.149 4.21762 118.848 3.61824C118.23 2.41532 117.252 1.43615 116.049 0.818447C115.448 0.515696 114.804 0.304369 114.141 0.191449C113.48 0.0812325 112.811 0.0221377 112.141 0.01469C111.836 0.00980997 111.523 0.00394999 111.219 0.00199999C110.859 0 110.494 0 110.135 0V0.00013Z" fill="#A6A6A6"/>
<path d="M8.44487 39.1251C8.14019 39.1251 7.84287 39.1212 7.54058 39.1144C6.91436 39.1062 6.28961 39.0517 5.67144 38.9513C5.09503 38.852 4.53664 38.6673 4.0147 38.4034C3.49754 38.1416 3.02585 37.7983 2.6177 37.3868C2.20364 36.98 1.85891 36.5083 1.59719 35.9903C1.33258 35.4689 1.14945 34.91 1.05419 34.3331C0.951311 33.7132 0.895651 33.0864 0.887687 32.4581C0.881347 32.2472 0.873047 31.545 0.873047 31.545V8.44448C0.873047 8.44448 0.881887 7.75307 0.887737 7.54994C0.895363 6.92262 0.950699 6.29679 1.05327 5.67787C1.14871 5.09939 1.33197 4.53889 1.59673 4.01578C1.85749 3.49809 2.2003 3.02601 2.61187 2.61783C3.02297 2.20577 3.49617 1.86075 4.01421 1.59536C4.53495 1.33225 5.09228 1.14888 5.66753 1.05142C6.28773 0.949989 6.91465 0.895149 7.54304 0.887363L8.44536 0.875153H111.214L112.127 0.887853C112.75 0.895252 113.371 0.949602 113.985 1.05044C114.566 1.14913 115.13 1.33377 115.656 1.59829C116.694 2.13314 117.539 2.97931 118.071 4.01822C118.332 4.53772 118.512 5.09365 118.607 5.66713C118.71 6.29113 118.768 6.92188 118.78 7.55434C118.783 7.83754 118.783 8.14174 118.783 8.44448C118.791 8.81947 118.791 9.1764 118.791 9.53626V30.4649C118.791 30.8282 118.791 31.1827 118.783 31.5401C118.783 31.8653 118.783 32.1632 118.779 32.4698C118.768 33.091 118.711 33.7104 118.608 34.3233C118.515 34.9043 118.333 35.4676 118.068 35.9933C117.805 36.5057 117.462 36.9733 117.053 37.379C116.644 37.7928 116.172 38.138 115.653 38.4015C115.128 38.6675 114.566 38.8528 113.985 38.9513C113.367 39.0522 112.743 39.1067 112.116 39.1144C111.823 39.1212 111.517 39.1251 111.219 39.1251L110.135 39.1271L8.44487 39.1251Z" fill="black"/>
<path d="M24.769 20.3006C24.7797 19.466 25.0014 18.6476 25.4135 17.9216C25.8255 17.1957 26.4145 16.5857 27.1256 16.1486C26.6738 15.5034 26.0779 14.9724 25.385 14.5979C24.6922 14.2233 23.9216 14.0155 23.1344 13.9909C21.4552 13.8146 19.8272 14.9957 18.9715 14.9957C18.0992 14.9957 16.7817 14.0084 15.363 14.0376C14.4453 14.0672 13.551 14.3341 12.7671 14.8121C11.9832 15.2902 11.3365 15.9631 10.8901 16.7654C8.95607 20.1139 10.3987 25.035 12.2513 27.7416C13.1782 29.0669 14.2615 30.5474 15.6789 30.4949C17.066 30.4374 17.584 29.6104 19.2583 29.6104C20.9171 29.6104 21.4031 30.4949 22.8493 30.4615C24.3377 30.4373 25.2754 29.1303 26.1698 27.7924C26.8358 26.848 27.3483 25.8043 27.6882 24.6998C26.8235 24.3341 26.0856 23.7219 25.5665 22.9396C25.0474 22.1573 24.77 21.2395 24.769 20.3006Z" fill="white"/>
<path d="M22.0376 12.211C22.8491 11.2368 23.2489 9.98465 23.1521 8.72043C21.9123 8.85065 20.767 9.4432 19.9445 10.38C19.5424 10.8377 19.2344 11.3701 19.0381 11.9469C18.8419 12.5237 18.7612 13.1334 18.8008 13.7414C19.4209 13.7478 20.0344 13.6134 20.5951 13.3483C21.1558 13.0832 21.649 12.6943 22.0376 12.211Z" fill="white"/>
<path d="M42.3022 27.1397H37.5688L36.4321 30.4962H34.4272L38.9106 18.0781H40.9937L45.4771 30.4962H43.438L42.3022 27.1397ZM38.0591 25.5909H41.8111L39.9615 20.1436H39.9097L38.0591 25.5909Z" fill="white"/>
<path d="M55.1597 25.9698C55.1597 28.7833 53.6538 30.5909 51.3814 30.5909C50.8057 30.621 50.2332 30.4884 49.7294 30.2083C49.2256 29.9282 48.8109 29.5118 48.5327 29.0069H48.4897V33.4913H46.6313V21.4425H48.4302V22.9483H48.4644C48.7553 22.4459 49.1771 22.0317 49.6847 21.7498C50.1923 21.468 50.7669 21.329 51.3472 21.3477C53.645 21.3477 55.1597 23.1642 55.1597 25.9698ZM53.2495 25.9698C53.2495 24.1368 52.3022 22.9317 50.8569 22.9317C49.437 22.9317 48.4819 24.1622 48.4819 25.9698C48.4819 27.7941 49.437 29.0157 50.8569 29.0157C52.3023 29.0157 53.2495 27.8194 53.2495 25.9698Z" fill="white"/>
<path d="M65.1245 25.9698C65.1245 28.7833 63.6187 30.5909 61.3462 30.5909C60.7706 30.621 60.1981 30.4884 59.6943 30.2083C59.1905 29.9282 58.7758 29.5118 58.4976 29.0069H58.4546V33.4913H56.5962V21.4425H58.395V22.9483H58.4292C58.7201 22.4459 59.1419 22.0317 59.6495 21.7498C60.1571 21.468 60.7317 21.329 61.312 21.3477C63.6099 21.3477 65.1245 23.1641 65.1245 25.9698ZM63.2144 25.9698C63.2144 24.1368 62.2671 22.9317 60.8218 22.9317C59.4019 22.9317 58.4468 24.1622 58.4468 25.9698C58.4468 27.7941 59.4019 29.0157 60.8218 29.0157C62.2671 29.0157 63.2144 27.8194 63.2144 25.9698H63.2144Z" fill="white"/>
<path d="M71.7105 27.0362C71.8482 28.2676 73.0445 29.0761 74.6792 29.0761C76.2456 29.0761 77.3726 28.2676 77.3726 27.1572C77.3726 26.1933 76.6929 25.6162 75.0835 25.2207L73.4742 24.833C71.1939 24.2822 70.1353 23.2158 70.1353 21.4853C70.1353 19.3428 72.0025 17.8711 74.6538 17.8711C77.2778 17.8711 79.0767 19.3428 79.1372 21.4853H77.2612C77.1489 20.2461 76.1245 19.498 74.6274 19.498C73.1304 19.498 72.106 20.2549 72.106 21.3564C72.106 22.2344 72.7603 22.751 74.3608 23.1464L75.729 23.4824C78.2768 24.0849 79.3354 25.1084 79.3354 26.9247C79.3354 29.248 77.4849 30.703 74.5415 30.703C71.7876 30.703 69.9282 29.2822 69.8081 27.0361L71.7105 27.0362Z" fill="white"/>
<path d="M83.3462 19.3V21.4426H85.0679V22.9142H83.3462V27.9054C83.3462 28.6808 83.6909 29.0422 84.4478 29.0422C84.6521 29.0386 84.8562 29.0242 85.0591 28.9992V30.462C84.7188 30.5256 84.373 30.5544 84.0269 30.548C82.1939 30.548 81.479 29.8595 81.479 28.1036V22.9142H80.1626V21.4426H81.479V19.3H83.3462Z" fill="white"/>
<path d="M86.0649 25.9699C86.0649 23.1212 87.7427 21.3312 90.3589 21.3312C92.9839 21.3312 94.6538 23.1212 94.6538 25.9699C94.6538 28.8263 92.9927 30.6086 90.3589 30.6086C87.726 30.6086 86.0649 28.8263 86.0649 25.9699ZM92.7602 25.9699C92.7602 24.0158 91.8647 22.8625 90.3589 22.8625C88.853 22.8625 87.9585 24.0246 87.9585 25.9699C87.9585 27.9318 88.853 29.0763 90.3589 29.0763C91.8647 29.0763 92.7602 27.9318 92.7602 25.9699H92.7602Z" fill="white"/>
<path d="M96.186 21.4425H97.9585V22.9835H98.0015C98.1214 22.5022 98.4034 22.0769 98.8 21.779C99.1966 21.4811 99.6836 21.3288 100.179 21.3477C100.393 21.347 100.607 21.3702 100.816 21.4171V23.1554C100.546 23.0727 100.264 23.0348 99.981 23.0431C99.711 23.0321 99.4418 23.0797 99.192 23.1826C98.9422 23.2855 98.7175 23.4412 98.5336 23.6391C98.3496 23.837 98.2106 24.0724 98.1262 24.329C98.0418 24.5857 98.0139 24.8576 98.0444 25.1261V30.4962H96.186L96.186 21.4425Z" fill="white"/>
<path d="M109.384 27.837C109.134 29.4805 107.534 30.6084 105.486 30.6084C102.852 30.6084 101.217 28.8438 101.217 26.0128C101.217 23.173 102.861 21.3312 105.408 21.3312C107.913 21.3312 109.488 23.0519 109.488 25.797V26.4337H103.093V26.546C103.064 26.8792 103.105 27.2149 103.216 27.5307C103.326 27.8465 103.502 28.1353 103.732 28.3779C103.963 28.6204 104.242 28.8112 104.552 28.9375C104.861 29.0638 105.195 29.1227 105.529 29.1104C105.968 29.1516 106.409 29.0499 106.785 28.8204C107.162 28.591 107.455 28.2461 107.62 27.837L109.384 27.837ZM103.102 25.1349H107.628C107.645 24.8353 107.6 24.5355 107.495 24.2543C107.39 23.9731 107.229 23.7165 107.02 23.5008C106.812 23.285 106.561 23.1147 106.283 23.0005C106.006 22.8862 105.708 22.8306 105.408 22.8371C105.105 22.8352 104.805 22.8934 104.525 23.0081C104.245 23.1229 103.99 23.2919 103.776 23.5056C103.562 23.7192 103.392 23.9732 103.276 24.2528C103.16 24.5325 103.101 24.8323 103.102 25.1349V25.1349Z" fill="white"/>
<path d="M37.8262 8.73117C38.2158 8.70321 38.6068 8.76207 38.9709 8.9035C39.335 9.04493 39.6632 9.26541 39.9318 9.54903C40.2004 9.83265 40.4027 10.1723 40.5241 10.5436C40.6455 10.9149 40.683 11.3085 40.6338 11.696C40.6338 13.6022 39.6036 14.6979 37.8262 14.6979H35.6709V8.73117H37.8262ZM36.5977 13.8541H37.7227C38.0011 13.8707 38.2797 13.8251 38.5382 13.7205C38.7968 13.6159 39.0287 13.4549 39.2172 13.2494C39.4057 13.0438 39.546 12.7988 39.6279 12.5322C39.7097 12.2656 39.7311 11.9841 39.6905 11.7081C39.7282 11.4333 39.7046 11.1535 39.6215 10.8889C39.5384 10.6242 39.3977 10.3812 39.2097 10.1773C39.0216 9.97336 38.7908 9.81355 38.5337 9.70931C38.2766 9.60508 37.9997 9.559 37.7227 9.57437H36.5977V13.8541Z" fill="white"/>
<path d="M41.6809 12.4444C41.6526 12.1485 41.6865 11.8499 41.7803 11.5678C41.8742 11.2858 42.0259 11.0264 42.2259 10.8065C42.4258 10.5865 42.6695 10.4107 42.9414 10.2904C43.2132 10.1702 43.5072 10.108 43.8045 10.108C44.1017 10.108 44.3957 10.1702 44.6676 10.2904C44.9394 10.4107 45.1831 10.5865 45.3831 10.8065C45.583 11.0264 45.7348 11.2858 45.8286 11.5678C45.9225 11.8499 45.9563 12.1485 45.928 12.4444C45.9569 12.7406 45.9234 13.0396 45.8298 13.3221C45.7362 13.6046 45.5846 13.8644 45.3846 14.0848C45.1846 14.3052 44.9407 14.4814 44.6686 14.6019C44.3964 14.7224 44.1021 14.7847 43.8045 14.7847C43.5069 14.7847 43.2125 14.7224 42.9404 14.6019C42.6683 14.4814 42.4244 14.3052 42.2244 14.0848C42.0244 13.8644 41.8727 13.6046 41.7791 13.3221C41.6855 13.0396 41.6521 12.7406 41.6809 12.4444ZM45.0139 12.4444C45.0139 11.4683 44.5755 10.8975 43.8059 10.8975C43.0335 10.8975 42.5989 11.4683 42.5989 12.4444C42.5989 13.4283 43.0335 13.9947 43.8059 13.9947C44.5755 13.9946 45.0139 13.4243 45.0139 12.4444H45.0139Z" fill="white"/>
<path d="M51.5732 14.6978H50.6514L49.7207 11.3814H49.6504L48.7236 14.6978H47.8105L46.5693 10.1949H47.4707L48.2773 13.6309H48.3438L49.2695 10.1949H50.1221L51.0479 13.6309H51.1182L51.9209 10.1949H52.8096L51.5732 14.6978Z" fill="white"/>
<path d="M53.8535 10.1949H54.709V10.9102H54.7754C54.8881 10.6533 55.0781 10.4379 55.3189 10.2941C55.5598 10.1503 55.8396 10.0852 56.1192 10.108C56.3383 10.0915 56.5583 10.1245 56.7629 10.2046C56.9675 10.2847 57.1514 10.4098 57.3011 10.5707C57.4508 10.7315 57.5624 10.924 57.6276 11.1338C57.6928 11.3437 57.7099 11.5655 57.6778 11.7828V14.6979H56.7891V12.006C56.7891 11.2823 56.4746 10.9225 55.8174 10.9225C55.6686 10.9155 55.5201 10.9408 55.3821 10.9967C55.244 11.0525 55.1197 11.1375 55.0176 11.2459C54.9154 11.3543 54.8379 11.4835 54.7904 11.6246C54.7429 11.7658 54.7264 11.9155 54.7422 12.0636V14.6979H53.8535L53.8535 10.1949Z" fill="white"/>
<path d="M59.0938 8.4371H59.9824V14.6979H59.0938V8.4371Z" fill="white"/>
<path d="M61.218 12.4443C61.1897 12.1484 61.2236 11.8498 61.3175 11.5677C61.4113 11.2856 61.5631 11.0263 61.7631 10.8063C61.963 10.5863 62.2068 10.4105 62.4786 10.2902C62.7505 10.17 63.0445 10.1078 63.3418 10.1078C63.6391 10.1078 63.9331 10.17 64.205 10.2902C64.4768 10.4105 64.7206 10.5863 64.9205 10.8063C65.1205 11.0263 65.2723 11.2856 65.3661 11.5677C65.46 11.8498 65.4939 12.1484 65.4656 12.4443C65.4944 12.7406 65.4609 13.0396 65.3673 13.3221C65.2737 13.6046 65.122 13.8644 64.922 14.0848C64.7219 14.3052 64.478 14.4814 64.2059 14.6019C63.9338 14.7224 63.6394 14.7847 63.3418 14.7847C63.0442 14.7847 62.7498 14.7224 62.4777 14.6019C62.2056 14.4814 61.9617 14.3052 61.7616 14.0848C61.5616 13.8644 61.4099 13.6046 61.3163 13.3221C61.2227 13.0396 61.1892 12.7406 61.218 12.4443ZM64.551 12.4443C64.551 11.4682 64.1125 10.8974 63.343 10.8974C62.5706 10.8974 62.136 11.4682 62.136 12.4443C62.136 13.4282 62.5706 13.9946 63.343 13.9946C64.1125 13.9946 64.551 13.4243 64.551 12.4443H64.551Z" fill="white"/>
<path d="M66.4009 13.4243C66.4009 12.6137 67.0044 12.1464 68.0757 12.08L69.2954 12.0097V11.621C69.2954 11.1454 68.981 10.8769 68.3735 10.8769C67.8774 10.8769 67.5337 11.059 67.4351 11.3774H66.5747C66.6655 10.6039 67.3931 10.1078 68.4146 10.1078C69.5435 10.1078 70.1802 10.6698 70.1802 11.621V14.6978H69.3247V14.0649H69.2544C69.1117 14.2919 68.9113 14.477 68.6737 14.6012C68.436 14.7254 68.1697 14.7844 67.9019 14.772C67.7128 14.7916 67.5218 14.7715 67.341 14.7128C67.1602 14.6541 66.9938 14.5581 66.8524 14.4312C66.711 14.3042 66.5977 14.149 66.52 13.9756C66.4422 13.8022 66.4016 13.6144 66.4009 13.4243ZM69.2954 13.0395V12.6631L68.1958 12.7334C67.5757 12.7749 67.2944 12.9858 67.2944 13.3828C67.2944 13.7881 67.646 14.0239 68.1294 14.0239C68.2711 14.0383 68.4142 14.024 68.5502 13.9819C68.6862 13.9398 68.8123 13.8708 68.9211 13.7789C69.0299 13.6871 69.1191 13.5743 69.1834 13.4473C69.2477 13.3202 69.2858 13.1816 69.2954 13.0395Z" fill="white"/>
<path d="M71.3481 12.4445C71.3481 11.0216 72.0796 10.1202 73.2173 10.1202C73.4987 10.1073 73.778 10.1747 74.0225 10.3146C74.267 10.4545 74.4667 10.6611 74.5981 10.9102H74.6646V8.4371H75.5532V14.6979H74.7017V13.9864H74.6314C74.4897 14.2339 74.2831 14.438 74.0339 14.5764C73.7846 14.7149 73.5022 14.7826 73.2173 14.7721C72.0718 14.7721 71.3481 13.8707 71.3481 12.4445ZM72.2661 12.4445C72.2661 13.3995 72.7163 13.9743 73.4693 13.9743C74.2183 13.9743 74.6812 13.3913 74.6812 12.4484C74.6812 11.5099 74.2134 10.9186 73.4693 10.9186C72.7212 10.9186 72.2661 11.4972 72.2661 12.4445H72.2661Z" fill="white"/>
<path d="M79.2298 12.4444C79.2015 12.1485 79.2353 11.8499 79.3292 11.5678C79.423 11.2858 79.5748 11.0264 79.7747 10.8065C79.9746 10.5865 80.2183 10.4107 80.4902 10.2904C80.762 10.1702 81.056 10.108 81.3533 10.108C81.6506 10.108 81.9446 10.1702 82.2164 10.2904C82.4883 10.4107 82.732 10.5865 82.9319 10.8065C83.1318 11.0264 83.2836 11.2858 83.3774 11.5678C83.4713 11.8499 83.5051 12.1485 83.4768 12.4444C83.5057 12.7406 83.4722 13.0396 83.3786 13.3221C83.285 13.6046 83.1334 13.8644 82.9334 14.0848C82.7334 14.3052 82.4895 14.4814 82.2174 14.6019C81.9453 14.7224 81.6509 14.7847 81.3533 14.7847C81.0557 14.7847 80.7613 14.7224 80.4892 14.6019C80.2171 14.4814 79.9732 14.3052 79.7732 14.0848C79.5732 13.8644 79.4216 13.6046 79.328 13.3221C79.2344 13.0396 79.2009 12.7406 79.2298 12.4444ZM82.5628 12.4444C82.5628 11.4683 82.1243 10.8975 81.3548 10.8975C80.5823 10.8975 80.1478 11.4683 80.1478 12.4444C80.1478 13.4283 80.5823 13.9947 81.3548 13.9947C82.1243 13.9946 82.5628 13.4243 82.5628 12.4444Z" fill="white"/>
<path d="M84.6694 10.1949H85.5249V10.9102H85.5913C85.704 10.6533 85.894 10.4379 86.1349 10.2941C86.3757 10.1503 86.6555 10.0852 86.9351 10.108C87.1542 10.0915 87.3742 10.1245 87.5788 10.2046C87.7834 10.2847 87.9673 10.4098 88.117 10.5707C88.2667 10.7315 88.3783 10.924 88.4435 11.1338C88.5087 11.3437 88.5258 11.5655 88.4937 11.7828V14.6979H87.605V12.006C87.605 11.2823 87.2906 10.9225 86.6333 10.9225C86.4846 10.9155 86.3361 10.9408 86.198 10.9967C86.0599 11.0525 85.9356 11.1375 85.8335 11.2459C85.7313 11.3543 85.6539 11.4835 85.6063 11.6246C85.5588 11.7658 85.5424 11.9155 85.5581 12.0636V14.6979H84.6694V10.1949Z" fill="white"/>
<path d="M93.5151 9.07385V10.2155H94.4907V10.964H93.5151V13.2794C93.5151 13.7511 93.7095 13.9576 94.1518 13.9576C94.2651 13.9573 94.3783 13.9504 94.4907 13.9371V14.6774C94.3311 14.7059 94.1694 14.7211 94.0073 14.7228C93.019 14.7228 92.6255 14.3751 92.6255 13.507V10.964H91.9106V10.2154H92.6255V9.07385H93.5151Z" fill="white"/>
<path d="M95.7046 8.4371H96.5855V10.9186H96.6558C96.7739 10.6592 96.9691 10.4426 97.2148 10.2983C97.4605 10.1539 97.7447 10.0889 98.0288 10.1119C98.2467 10.1001 98.4646 10.1364 98.6669 10.2185C98.8692 10.3005 99.0509 10.4262 99.199 10.5865C99.3471 10.7469 99.458 10.9379 99.5238 11.1461C99.5896 11.3542 99.6086 11.5743 99.5796 11.7906V14.6979H98.69V12.0099C98.69 11.2906 98.355 10.9264 97.7271 10.9264C97.5744 10.9138 97.4207 10.9348 97.277 10.9879C97.1332 11.0409 97.0027 11.1248 96.8947 11.2335C96.7867 11.3422 96.7038 11.4733 96.6517 11.6174C96.5997 11.7615 96.5797 11.9153 96.5933 12.068V14.6978H95.7046L95.7046 8.4371Z" fill="white"/>
<path d="M104.761 13.482C104.641 13.8935 104.379 14.2495 104.022 14.4877C103.666 14.7258 103.237 14.831 102.81 14.7847C102.514 14.7926 102.219 14.7357 101.946 14.6182C101.674 14.5007 101.43 14.3252 101.232 14.1041C101.034 13.883 100.887 13.6214 100.8 13.3376C100.713 13.0537 100.69 12.7545 100.73 12.4605C100.691 12.1656 100.715 11.8656 100.801 11.581C100.888 11.2963 101.035 11.0335 101.231 10.8104C101.428 10.5874 101.671 10.4092 101.942 10.288C102.214 10.1668 102.509 10.1054 102.806 10.1079C104.059 10.1079 104.815 10.9639 104.815 12.3779V12.688H101.635V12.7378C101.621 12.9031 101.642 13.0694 101.696 13.2262C101.751 13.3829 101.837 13.5266 101.95 13.6481C102.063 13.7695 102.2 13.8661 102.352 13.9315C102.504 13.9969 102.669 14.0297 102.835 14.0278C103.047 14.0534 103.263 14.0151 103.453 13.9179C103.644 13.8207 103.802 13.6689 103.906 13.4819L104.761 13.482ZM101.635 12.0308H103.91C103.921 11.8796 103.9 11.7278 103.849 11.5851C103.799 11.4424 103.718 11.3119 103.614 11.2021C103.51 11.0922 103.383 11.0054 103.243 10.9472C103.103 10.889 102.953 10.8608 102.801 10.8643C102.648 10.8623 102.495 10.8912 102.353 10.9491C102.21 11.0071 102.081 11.0929 101.972 11.2017C101.864 11.3104 101.778 11.4397 101.72 11.5821C101.662 11.7245 101.633 11.8771 101.635 12.0308H101.635Z" fill="white"/>
</svg>
