<svg width="128" height="48" viewBox="0 0 128 48" fill="none" xmlns="http://www.w3.org/2000/svg">
<rect x="0.5" y="0.5" width="127" height="47" rx="7.5" fill="white" stroke="#3077C6"/>
<path d="M39.4521 23.2959C38.0049 22.8799 36.9502 22.3701 36.2881 21.7666C35.6318 21.1572 35.3037 20.4072 35.3037 19.5166C35.3037 18.5088 35.7051 17.6768 36.5078 17.0205C37.3164 16.3584 38.3652 16.0273 39.6543 16.0273C40.5332 16.0273 41.3154 16.1973 42.001 16.5371C42.6924 16.877 43.2256 17.3457 43.6006 17.9434C43.9814 18.541 44.1719 19.1943 44.1719 19.9033H42.4756C42.4756 19.1299 42.2295 18.5234 41.7373 18.084C41.2451 17.6387 40.5508 17.416 39.6543 17.416C38.8223 17.416 38.1719 17.6006 37.7031 17.9697C37.2402 18.333 37.0088 18.8398 37.0088 19.4902C37.0088 20.0117 37.2285 20.4541 37.668 20.8174C38.1133 21.1748 38.8662 21.5029 39.9268 21.8018C40.9932 22.1006 41.8252 22.4316 42.4229 22.7949C43.0264 23.1523 43.4717 23.5713 43.7588 24.0518C44.0518 24.5322 44.1982 25.0977 44.1982 25.748C44.1982 26.7852 43.7939 27.6172 42.9854 28.2441C42.1768 28.8652 41.0957 29.1758 39.7422 29.1758C38.8633 29.1758 38.043 29.0088 37.2812 28.6748C36.5195 28.335 35.9307 27.8721 35.5146 27.2861C35.1045 26.7002 34.8994 26.0352 34.8994 25.291H36.5957C36.5957 26.0645 36.8799 26.6768 37.4482 27.1279C38.0225 27.5732 38.7871 27.7959 39.7422 27.7959C40.6328 27.7959 41.3154 27.6143 41.79 27.251C42.2646 26.8877 42.502 26.3926 42.502 25.7656C42.502 25.1387 42.2822 24.6553 41.8428 24.3154C41.4033 23.9697 40.6064 23.6299 39.4521 23.2959ZM47.8809 29H46.2549V19.4902H47.8809V29ZM46.123 16.9678C46.123 16.7041 46.2021 16.4814 46.3604 16.2998C46.5244 16.1182 46.7646 16.0273 47.0811 16.0273C47.3975 16.0273 47.6377 16.1182 47.8018 16.2998C47.9658 16.4814 48.0479 16.7041 48.0479 16.9678C48.0479 17.2314 47.9658 17.4512 47.8018 17.627C47.6377 17.8027 47.3975 17.8906 47.0811 17.8906C46.7646 17.8906 46.5244 17.8027 46.3604 17.627C46.2021 17.4512 46.123 17.2314 46.123 16.9678ZM50.1045 24.166C50.1045 22.6836 50.4473 21.5059 51.1328 20.6328C51.8184 19.7539 52.7266 19.3145 53.8574 19.3145C55.0176 19.3145 55.9229 19.7246 56.5732 20.5449L56.6523 19.4902H58.1377V28.7715C58.1377 30.002 57.7715 30.9717 57.0391 31.6807C56.3125 32.3896 55.334 32.7441 54.1035 32.7441C53.418 32.7441 52.7471 32.5977 52.0908 32.3047C51.4346 32.0117 50.9336 31.6104 50.5879 31.1006L51.4316 30.125C52.1289 30.9863 52.9814 31.417 53.9893 31.417C54.7803 31.417 55.3955 31.1943 55.835 30.749C56.2803 30.3037 56.5029 29.6768 56.5029 28.8682V28.0508C55.8525 28.8008 54.9648 29.1758 53.8398 29.1758C52.7266 29.1758 51.8242 28.7275 51.1328 27.8311C50.4473 26.9346 50.1045 25.7129 50.1045 24.166ZM51.7393 24.3506C51.7393 25.4229 51.959 26.2666 52.3984 26.8818C52.8379 27.4912 53.4531 27.7959 54.2441 27.7959C55.2695 27.7959 56.0225 27.3301 56.5029 26.3984V22.0566C56.0049 21.1484 55.2578 20.6943 54.2617 20.6943C53.4707 20.6943 52.8525 21.002 52.4072 21.6172C51.9619 22.2324 51.7393 23.1436 51.7393 24.3506ZM62.1367 19.4902L62.1895 20.6855C62.916 19.7715 63.8652 19.3145 65.0371 19.3145C67.0469 19.3145 68.0605 20.4482 68.0781 22.7158V29H66.4521V22.707C66.4463 22.0215 66.2881 21.5146 65.9775 21.1865C65.6729 20.8584 65.1953 20.6943 64.5449 20.6943C64.0176 20.6943 63.5547 20.835 63.1562 21.1162C62.7578 21.3975 62.4473 21.7666 62.2246 22.2236V29H60.5986V19.4902H62.1367ZM80.8662 28.0596C80.2334 28.8037 79.3047 29.1758 78.0801 29.1758C77.0664 29.1758 76.293 28.8828 75.7598 28.2969C75.2324 27.7051 74.9658 26.832 74.96 25.6777V19.4902H76.5859V25.6338C76.5859 27.0752 77.1719 27.7959 78.3438 27.7959C79.5859 27.7959 80.4121 27.333 80.8223 26.4072V19.4902H82.4482V29H80.9014L80.8662 28.0596ZM92.96 24.3506C92.96 25.7979 92.6289 26.9639 91.9668 27.8486C91.3047 28.7334 90.4082 29.1758 89.2773 29.1758C88.123 29.1758 87.2148 28.8096 86.5527 28.0771V32.6562H84.9268V19.4902H86.4121L86.4912 20.5449C87.1533 19.7246 88.0732 19.3145 89.251 19.3145C90.3936 19.3145 91.2959 19.7451 91.958 20.6064C92.626 21.4678 92.96 22.666 92.96 24.2012V24.3506ZM91.334 24.166C91.334 23.0938 91.1055 22.2471 90.6484 21.626C90.1914 21.0049 89.5645 20.6943 88.7676 20.6943C87.7832 20.6943 87.0449 21.1309 86.5527 22.0039V26.5479C87.0391 27.415 87.7832 27.8486 88.7852 27.8486C89.5645 27.8486 90.1826 27.541 90.6396 26.9258C91.1025 26.3047 91.334 25.3848 91.334 24.166Z" fill="#3077C6"/>

</svg>
